<svg xmlns="http://www.w3.org/2000/svg" viewBox="0 0 48 48" width="48" height="48">
  <defs>
    <linearGradient id="gp" x1="0" y1="0" x2="1" y2="1">
      <stop offset="0" stop-color="#2E86FF"/>
      <stop offset="1" stop-color="#0B57E0"/>
    </linearGradient>
  </defs>
  <rect x="2" y="2" width="44" height="44" rx="12" fill="url(#gp)"/>
  <g fill="none" stroke="#ffffff" stroke-width="2.4" stroke-linecap="round" stroke-linejoin="round">
    <path d="M13 19v-4a1.5 1.5 0 0 1 1.5-1.5H18"/>
    <path d="M35 19v-4a1.5 1.5 0 0 0-1.5-1.5H30"/>
    <path d="M13 29v4a1.5 1.5 0 0 0 1.5 1.5H18"/>
    <path d="M35 29v4a1.5 1.5 0 0 1-1.5 1.5H30"/>
  </g>
  <path d="M20.5 17.5 32 24l-11.5 6.5z" fill="#ffffff"/>
</svg>
